<svg version="1.1" xmlns="http://www.w3.org/2000/svg" x="0" y="0" viewBox="-38.8 -71.6 342.6 431.5" enable-background="new -38.8 -71.6 342.6 431.5" xml:space="preserve"><path fill="#FFFFFF" d="M132.5-71v-0.6c0 0.1 0 0.1 0 0.3 0-0.1 0-0.1 0-0.3V-71C129.7 7.7-41.6 67.2-38.8 197.3 -36.8 285 44.7 359 132.4 359.9v-0.4h0.1 0.1v0.4c87.6-0.7 169.2-74.8 171.1-162.6C306.6 67.2 135.3 7.7 132.5-71"/><defs><rect x="0" y="0" width="265" height="411"/></defs><clipPath><use overflow="visible"/></clipPath><path clip-path="url(#SVGID_2_)" fill="#096088" d="M79.1 267.4c0 0-0.4-10.9-3-35.9 -2.6-25.1 2.2-85.3 3.4-97.3 1.1-12 5.6-18.3 5.6-18.3s0.1-0.1 0.3-0.2l-49.3 16.8c-12.1 17.9-20.1 38-19.6 61.6 0.5 25 10.8 48.4 26.9 66.9l37.5 15L79.1 267.4z"/><text transform="matrix(1 0 0 1 144.8408 346.8945)" fill="#231F20" font-family="'ArialMT'" font-size="45.8"/><defs><rect x="0" y="0" width="265" height="411"/></defs><clipPath><use overflow="visible"/></clipPath><path clip-path="url(#SVGID_4_)" fill="#F89A20" d="M131 14.8v-0.4c0 0.1 0 0.1 0 0.2 0-0.1 0-0.1 0-0.2V14.8c-1.9 52.6-116.4 92.4-114.5 179.4 1.3 58.6 55.8 108.1 114.4 108.7v-0.3h0.1 0.1v0.3c58.6-0.5 113.1-50 114.4-108.7C247.4 107.2 132.9 67.4 131 14.8"/><defs><rect x="0" y="0" width="265" height="411"/></defs><clipPath><use overflow="visible"/></clipPath><path clip-path="url(#SVGID_6_)" fill="#FFFFFF" d="M85.1 115.9c0 0-4.5 6.4-5.6 18.3 -1.1 12-6 72.2-3.4 97.3s3 35.9 3 35.9l1.9 9c0 0 50.5 15.7 85.7 17.2 23.9 1 46 0 55.7-6.4 13.4-8.7 15.7-18 16.8-24.3 1.1-6.4 0.5-28.5-10.1-51.3 -4.9-10.5-32.5-81.2-32.5-81.2s-2.2-7.5-15-12.3c-16.8-6.4-47.1-9.4-66.6-9C95.6 109.6 85.1 115.9 85.1 115.9"/><defs><rect x="0" y="0" width="265" height="411"/></defs><clipPath><use overflow="visible"/></clipPath><path clip-path="url(#SVGID_8_)" fill="#096088" d="M233.1 221.5l-0.8 0.3 -1.1 0.1c0.5 1.5 0.8 2.5 0.9 2.9 0.7 4.8-9.8 13.2-47.2 1.9l-6.5 0.7 -17.8 13.1c0 0 11.6 15.7 10.5 34.2 0 0 48.4 2.8 59.9-2.4 0 0 4.2-1.8 6.6-2.8 0.9-2.4 1.3-4.6 1.7-6.6C240.2 257.5 239.9 240.5 233.1 221.5"/><defs><rect x="0" y="0" width="265" height="411"/></defs><clipPath><use overflow="visible"/></clipPath><path clip-path="url(#SVGID_10_)" fill="#304354" d="M125.1 123c0 0 19.8 91.3 58.4 103.3 38.5 12 49.4 3.4 48.6-1.5 -0.7-4.9-37-93.5-37-93.5S183.5 117.4 125.1 123"/><defs><rect x="0" y="0" width="265" height="411"/></defs><clipPath><use overflow="visible"/></clipPath><path clip-path="url(#SVGID_12_)" fill="#304354" d="M99.7 120.4c0 0 13.8-5.6 17.6 4.1C121 134.2 151 236 151 236s1.9 17.2-11.6 23.9c-13.5 6.7-28.8-6.4-30.7-10.5 -1.9-4.1-23.9-86.8-22.8-104C85.8 145.5 88.5 125.6 99.7 120.4"/><defs><rect x="0" y="0" width="265" height="411"/></defs><clipPath><use overflow="visible"/></clipPath><path clip-path="url(#SVGID_14_)" fill="#304354" d="M181.9 246.5c0 0-0.7-5.3 4.6-4.9 4.6 0.4 5.8 4.1 5.6 5.6 -0.2 1.8-1.8 4.1-6 3.4C182.3 250 181.9 246.5 181.9 246.5"/><defs><rect x="0" y="0" width="265" height="411"/></defs><clipPath><use overflow="visible"/></clipPath><path clip-path="url(#SVGID_16_)" fill="#42AAD9" d="M187.1 245.9c0 2.1-1.2 3.8-2.7 3.8s-2.7-1.8-2.7-3.9c0-2.1 1.2-3.7 2.7-3.7C185.9 242.1 187.1 243.8 187.1 245.9"/><defs><rect x="0" y="0" width="265" height="411"/></defs><clipPath><use overflow="visible"/></clipPath><path clip-path="url(#SVGID_18_)" fill="#304354" d="M192.1 253.1c0 0-0.6-4.7 4.1-4.3 4.1 0.3 5.1 3.6 4.9 4.9 -0.1 1.6-1.6 3.6-5.3 3C192.5 256.1 192.1 253.1 192.1 253.1"/><defs><rect x="0" y="0" width="265" height="411"/></defs><clipPath><use overflow="visible"/></clipPath><path clip-path="url(#SVGID_20_)" fill="#42AAD9" d="M196.7 252.5c0 1.8-1 3.3-2.3 3.3s-2.4-1.6-2.4-3.5c0-1.8 1.1-3.2 2.4-3.2C195.7 249.2 196.7 250.6 196.7 252.5"/><defs><rect x="0" y="0" width="265" height="411"/></defs><clipPath><use overflow="visible"/></clipPath><path clip-path="url(#SVGID_22_)" fill="#304354" d="M203.4 253.3c0 0-0.6-4.2 3.7-3.9 3.7 0.3 4.6 3.2 4.5 4.5 -0.1 1.4-1.4 3.2-4.8 2.7C203.8 256 203.4 253.3 203.4 253.3"/><defs><rect x="0" y="0" width="265" height="411"/></defs><clipPath><use overflow="visible"/></clipPath><path clip-path="url(#SVGID_24_)" fill="#42AAD9" d="M207.6 252.7c0 1.7-0.9 3-2.1 3s-2.1-1.5-2.1-3.1c0-1.7 1-2.9 2.1-2.9S207.6 251 207.6 252.7"/><defs><rect x="0" y="0" width="265" height="411"/></defs><clipPath><use overflow="visible"/></clipPath><path clip-path="url(#SVGID_26_)" fill="#2179B7" d="M231 272.3c-11.4 5.2-59.9 2.4-59.9 2.4 -1 14-3.3 17.9-4.3 18.9 23.9 1 45.9 0 55.6-6.4 9.3-6.1 13.2-12.3 15.2-17.8C235.2 270.5 231 272.3 231 272.3"/><defs><rect x="0" y="0" width="265" height="411"/></defs><clipPath><use overflow="visible"/></clipPath><path clip-path="url(#SVGID_28_)" fill="#FFFFFF" d="M160.7 240.5l-9.7-1.1c-0.2 5.4-1.9 15.7-11.7 20.5 -13.5 6.7-28.8-6.4-30.7-10.5 -0.5-1-2.2-6.9-4.5-15.4L76 230.9c0 0.2 0 0.4 0.1 0.6 2.6 25.1 3 35.9 3 35.9l1.9 9c0 0 50.5 15.7 85.7 17.2h0.1c1-1 3.3-4.9 4.4-18.9C172.2 256.6 161.1 241.2 160.7 240.5"/><defs><rect x="0" y="0" width="265" height="411"/></defs><clipPath><use overflow="visible"/></clipPath><path clip-path="url(#SVGID_30_)" fill="#1E75AB" d="M183.5 226.3c-28.4-8.8-46.7-60.8-54.3-87.5l-5 0.3 -1.9 1C131.9 171.2 151 236 151 236s0.2 1.4 0.1 3.6c0-0.1 0-0.1 0-0.2l9.7 1.1 0 0 0 0 17.8-13.1 6.5-0.7c0 0 0 0 0.1 0C184.5 226.6 184 226.5 183.5 226.3"/><defs><rect x="0" y="0" width="265" height="411"/></defs><clipPath><use overflow="visible"/></clipPath><path clip-path="url(#SVGID_32_)" fill="#1E75AB" d="M104.2 234.1c-6.9-25.7-19.2-75.7-18.4-88.6 0 0 0-0.2 0.1-0.6 -1.1-0.1-3.1-0.3-3.1-0.3s-1.7 0.9-2.6 0.9c-0.8 0-1.1 0.4-1.7 0.5 -1.7 22-4.4 64.4-2.4 84.9L104.2 234.1z"/><defs><rect x="0" y="0" width="265" height="411"/></defs><clipPath><use overflow="visible"/></clipPath><path clip-path="url(#SVGID_34_)" fill="#096088" d="M79.1 267.4c0 0-0.4-10.9-3-35.9 -2.6-25.1 2.2-85.3 3.4-97.3 1.1-12 5.6-18.3 5.6-18.3s0.1-0.1 0.3-0.2l-49.3 16.8c-12.1 17.9-20.1 38-19.6 61.6 0.5 25 10.8 48.4 26.9 66.9l37.5 15L79.1 267.4z"/><defs><rect x="0" y="0" width="265" height="411"/></defs><clipPath><use overflow="visible"/></clipPath><path clip-path="url(#SVGID_36_)" fill="#304354" d="M66.4 146.8c0 0-2.8 93.1 1.7 113.9l-23.6-8.4 -0.6-101L66.4 146.8z"/><defs><rect x="0" y="0" width="265" height="411"/></defs><clipPath><use overflow="visible"/></clipPath><path clip-path="url(#SVGID_38_)" fill="#304354" d="M181.9 246.5c0 0-0.7-5.3 4.6-4.9 4.6 0.4 5.8 4.1 5.6 5.6 -0.2 1.8-1.8 4.1-6 3.4C182.3 250 181.9 246.5 181.9 246.5"/><defs><rect x="0" y="0" width="265" height="411"/></defs><clipPath><use overflow="visible"/></clipPath><path clip-path="url(#SVGID_40_)" fill="#42AAD9" d="M187.1 245.9c0 2.1-1.2 3.8-2.7 3.8s-2.7-1.8-2.7-3.9c0-2.1 1.2-3.7 2.7-3.7C185.9 242.1 187.1 243.8 187.1 245.9"/><defs><rect x="0" y="0" width="265" height="411"/></defs><clipPath><use overflow="visible"/></clipPath><path clip-path="url(#SVGID_42_)" fill="#304354" d="M192.1 253.1c0 0-0.6-4.7 4.1-4.3 4.1 0.3 5.1 3.6 4.9 4.9 -0.1 1.6-1.6 3.6-5.3 3C192.5 256.1 192.1 253.1 192.1 253.1"/><defs><rect x="0" y="0" width="265" height="411"/></defs><clipPath><use overflow="visible"/></clipPath><path clip-path="url(#SVGID_44_)" fill="#42AAD9" d="M196.7 252.5c0 1.8-1 3.3-2.3 3.3s-2.4-1.6-2.4-3.5c0-1.8 1.1-3.2 2.4-3.2C195.7 249.2 196.7 250.6 196.7 252.5"/><defs><rect x="0" y="0" width="265" height="411"/></defs><clipPath><use overflow="visible"/></clipPath><path clip-path="url(#SVGID_46_)" fill="#304354" d="M203.4 253.3c0 0-0.6-4.2 3.7-3.9 3.7 0.3 4.6 3.2 4.5 4.5 -0.1 1.4-1.4 3.2-4.8 2.7C203.8 256 203.4 253.3 203.4 253.3"/><defs><rect x="0" y="0" width="265" height="411"/></defs><clipPath><use overflow="visible"/></clipPath><path clip-path="url(#SVGID_48_)" fill="#42AAD9" d="M207.6 252.7c0 1.7-0.9 3-2.1 3s-2.1-1.5-2.1-3.1c0-1.7 1-2.9 2.1-2.9S207.6 251 207.6 252.7"/><defs><rect x="0" y="0" width="265" height="411"/></defs><clipPath><use overflow="visible"/></clipPath><path clip-path="url(#SVGID_50_)" fill="#304354" d="M16.5 194.1c0.2 9.2 1.7 18.1 4.3 26.7l19.2 2.3 0.1-70.7L24 154.6C19.1 166.6 16.2 179.7 16.5 194.1"/></svg>